# xmcd
#
# Track frame offsets:
#	150
#	15957
#	31387
#	45782
#	59447
#	75637
#	89407
#	102095
#
# Disc length: 1534
#
# Revision: 1
# Processed by: cddbd v1.5.1PL0 Copyright (c) Steve Scherf et al.
# Submitted via: uFREEDB 1.6.0
# Normalized: r0:DSETVAR2,TDELIM( - )
#
DISCID=4e05fc08
DTITLE=Various Artist - Promo Vol IIB
DYEAR=1991
DGENRE=Country
TTITLE0=Tony Toliver - That's How Strong My Weakness Is
TTITLE1=Vern Gosdin - The Garden
TTITLE2=Kelly Willis - The Heart That Love Forgot
TTITLE3=James Robbins - There Ain't Enough Roses
TTITLE4=Linda Davis - Three Way Tie
TTITLE5=Donna Ulisse - Trouble At The Door
TTITLE6=Tammy Wynette - We're Strangers Again
TTITLE7=Skip Ewing - The Yodelin' Blues
EXTD=
EXTT0=
EXTT1=
EXTT2=
EXTT3=
EXTT4=
EXTT5=
EXTT6=
EXTT7=
PLAYORDER=
